<?xml version="1.0" encoding="utf-8"?>
<!-- Generator: Adobe Illustrator 21.1.0, SVG Export Plug-In . SVG Version: 6.00 Build 0)  -->
<svg version="1.1" id="Слой_1" xmlns="http://www.w3.org/2000/svg" xmlns:xlink="http://www.w3.org/1999/xlink" x="0px" y="0px"
	 viewBox="0 0 1610.2 956" style="enable-background:new 0 0 1610.2 956;" xml:space="preserve">
<g>
	<g>
		<path d="M454.3,597.1c-1.2,0-2.4-0.3-3.6-1l-84.3-48.7v0c-6-3.5-9.7-9.9-9.7-16.9v-97.4c0-2.6,1.3-4.9,3.6-6.2
			c2.2-1.3,4.9-1.3,7.1,0l86.1,49.7c4.9,2.8,7.9,8,7.9,13.7V590c0,2.6-1.3,4.9-3.6,6.2C456.8,596.8,455.5,597.1,454.3,597.1z
			 M363.8,432.1c-0.2,0-0.4,0.1-0.6,0.2c-0.2,0.1-0.6,0.4-0.6,1v97.4c0,4.8,2.6,9.3,6.7,11.7l84.3,48.7c0.5,0.3,0.9,0.1,1.1,0
			c0.2-0.1,0.6-0.4,0.6-1v-99.5c0-3.5-1.9-6.7-4.9-8.5l-86.1-49.7C364.2,432.2,364,432.1,363.8,432.1z"/>
	</g>
	<g>
		<path d="M464.6,472.3c-5,0-10-1.3-14.4-3.9l-79.6-46c-2.2-1.3-3.6-3.6-3.6-6.2c0-2.6,1.3-4.9,3.6-6.2l84.3-48.7
			c6-3.5,13.5-3.5,19.5,0l84.3,48.7c2.2,1.3,3.6,3.6,3.6,6.2c0,2.6-1.3,4.9-3.6,6.2l-79.6,46C474.6,471,469.6,472.3,464.6,472.3z
			 M457.9,366.7l-84.3,48.7c-0.5,0.3-0.6,0.7-0.6,1c0,0.2,0.1,0.7,0.6,1l79.6,46c7.1,4.1,15.8,4.1,22.9,0l79.6-46
			c0.5-0.3,0.6-0.7,0.6-1c0-0.2-0.1-0.7-0.6-1l-84.3-48.7C467.2,364.3,462,364.3,457.9,366.7L457.9,366.7z"/>
	</g>
	<g>
		<path d="M474.8,597.1c-1.2,0-2.4-0.3-3.6-1c-2.2-1.3-3.6-3.6-3.6-6.2v-99.5c0-5.6,3-10.9,7.9-13.7l86.1-49.7
			c2.2-1.3,4.9-1.3,7.1,0c2.2,1.3,3.6,3.6,3.6,6.2v97.4c0,6.9-3.7,13.4-9.7,16.9l-84.3,48.7C477.3,596.8,476.1,597.1,474.8,597.1z
			 M565.3,432.1c-0.2,0-0.4,0-0.6,0.2L478.6,482c-3,1.7-4.9,5-4.9,8.5V590c0,0.6,0.4,0.8,0.6,1c0.2,0.1,0.6,0.3,1.1,0l84.3-48.7
			c4.2-2.4,6.7-6.9,6.7-11.7v-97.4c0-0.6-0.4-0.8-0.6-1C565.8,432.2,565.6,432.1,565.3,432.1z"/>
	</g>
</g>
<g>
	<g>
		<g>
			<path d="M625.6,561.2v-40.4c1.4-0.2,2.7-0.3,4.1-0.5c1.4-0.1,2.7-0.3,4-0.4c1.3-0.1,2.5-0.2,3.6-0.2c1.1-0.1,2.1-0.1,3-0.1
				c2.1,0,4.1,0.2,5.9,0.7c1.8,0.5,3.4,1.2,4.7,2.4c1.3,1.1,2.3,2.7,3.1,4.6c0.7,1.9,1.1,4.4,1.1,7.4c0,2.9-0.4,5.4-1.1,7.5
				c-0.7,2-1.8,3.7-3.1,4.9c-1.3,1.2-2.8,2.1-4.6,2.7c-1.8,0.5-3.6,0.8-5.7,0.8c-1.5,0-3.2-0.1-5.2-0.3c-2-0.2-4-0.5-6.2-0.9v11.9
				H625.6z M640.3,546.9c1.6,0,3-0.2,4.4-0.6c1.4-0.4,2.5-1.1,3.5-2c1-1,1.8-2.2,2.3-3.8c0.6-1.6,0.8-3.5,0.8-5.8
				c0-2.4-0.3-4.3-0.8-5.8c-0.6-1.5-1.3-2.7-2.4-3.5c-1-0.8-2.2-1.4-3.6-1.7c-1.4-0.3-2.9-0.4-4.5-0.4c-1.1,0-2.6,0.1-4.5,0.2
				c-1.9,0.1-4,0.3-6.2,0.6v21.7c1.1,0.2,2.1,0.4,3.2,0.5c1.1,0.2,2.1,0.3,3,0.4c1,0.1,1.8,0.2,2.7,0.2
				C639,546.9,639.7,546.9,640.3,546.9z"/>
			<path d="M663.9,549.7v-28.1c1.3-0.2,2.7-0.5,4-0.6c1.4-0.2,2.7-0.4,4-0.5c1.3-0.1,2.5-0.2,3.6-0.3c1.1-0.1,2.2-0.1,3.1-0.1v3.5
				c-0.6,0-1.2,0-2.1,0.1c-0.8,0-1.7,0.1-2.7,0.2c-1,0.1-2,0.2-3,0.3c-1.1,0.1-2.1,0.3-3.2,0.5v25.2H663.9z"/>
			<path d="M697.5,550.5c-1.9,0-3.8-0.2-5.6-0.5c-1.8-0.3-3.3-1-4.7-2.1c-1.4-1.1-2.4-2.6-3.2-4.5c-0.8-2-1.2-4.6-1.2-7.9
				c0-3.3,0.4-6,1.2-8c0.8-2.1,1.9-3.7,3.4-4.8c1.4-1.1,3.1-1.9,5.1-2.3c2-0.4,4.1-0.6,6.4-0.6c2,0,3.8,0.2,5.6,0.5
				c1.8,0.3,3.3,1,4.7,2.1c1.4,1.1,2.4,2.6,3.2,4.5c0.8,2,1.2,4.6,1.2,7.8c0,3.3-0.4,6-1.2,8.1c-0.8,2.1-1.9,3.7-3.4,4.8
				c-1.4,1.1-3.1,1.9-5.1,2.3C701.9,550.3,699.8,550.5,697.5,550.5z M697.4,546.9c1.8,0,3.5-0.1,5-0.4c1.5-0.3,2.8-0.8,3.9-1.7
				s2-2.1,2.6-3.7c0.6-1.6,0.9-3.7,0.9-6.3c0-2.7-0.3-4.8-0.9-6.3c-0.6-1.5-1.4-2.7-2.4-3.5c-1-0.8-2.2-1.3-3.5-1.5
				c-1.3-0.2-2.6-0.3-4-0.3c-1.8,0-3.5,0.1-5,0.4c-1.5,0.3-2.8,0.8-3.9,1.7c-1.1,0.8-2,2.1-2.6,3.7c-0.6,1.6-0.9,3.7-0.9,6.3
				c0,2.7,0.3,4.8,0.9,6.3c0.6,1.5,1.4,2.7,2.4,3.5c1,0.8,2.2,1.3,3.5,1.5C694.6,546.8,696,546.9,697.4,546.9z"/>
			<path d="M726.2,556c0,1.9-0.1,3.4-0.4,4.5c-0.3,1.1-0.7,2-1.2,2.7c-0.5,0.6-1.2,1.1-1.8,1.3c-0.7,0.2-1.4,0.3-2.2,0.3
				c-0.6,0-1.3,0-2.1-0.1c-0.8-0.1-1.6-0.2-2.4-0.3l0.4-3.5c0.5,0.1,1.1,0.1,1.8,0.2c0.7,0.1,1.2,0.1,1.6,0.1c0.3,0,0.7-0.1,1-0.2
				c0.3-0.1,0.6-0.4,0.9-0.7c0.3-0.4,0.5-0.9,0.6-1.6c0.1-0.7,0.2-1.6,0.2-2.7v-35.6h3.7V556z M722.4,516v-6.3h3.7v6.3H722.4z"/>
			<path d="M751.2,550.5c-2.4,0-4.6-0.3-6.6-0.8c-2-0.6-3.7-1.5-5.1-2.7c-1.4-1.2-2.5-2.9-3.3-4.9c-0.8-2-1.1-4.4-1.1-7.2
				c0-3,0.4-5.6,1.3-7.5c0.9-2,2-3.5,3.5-4.7c1.5-1.1,3.1-1.9,5.1-2.4c1.9-0.4,4-0.6,6.1-0.6c2.3,0,4.3,0.2,6.2,0.7
				c1.8,0.5,3.4,1.3,4.7,2.5c1.3,1.2,2.3,2.8,2.9,4.8c0.7,2,1,4.4,1,7.4v1.8h-27c0.3,3.6,1.6,6.1,3.8,7.7c2.2,1.6,5.1,2.4,8.9,2.4
				c0.6,0,1.3,0,2.3-0.1c1,0,2.1-0.1,3.3-0.2c1.2-0.1,2.4-0.2,3.7-0.4c1.3-0.2,2.5-0.4,3.7-0.6l0.3,3.6c-1.2,0.2-2.5,0.3-3.8,0.5
				c-1.3,0.1-2.5,0.3-3.7,0.4c-1.2,0.1-2.3,0.2-3.4,0.2C752.9,550.4,752,550.5,751.2,550.5z M751,523.4c-1.5,0-3,0.1-4.4,0.4
				c-1.4,0.2-2.6,0.7-3.7,1.5c-1.1,0.7-2,1.7-2.7,3s-1.1,3-1.3,5.1h23.3c-0.1-1.9-0.4-3.6-1-4.8c-0.6-1.3-1.3-2.3-2.2-3
				s-2.1-1.3-3.4-1.6C754.2,523.5,752.6,523.4,751,523.4z"/>
			<path d="M788.6,546.9c1.6,0,3.4-0.1,5.5-0.2s4.2-0.5,6.2-1l0.3,3.6c-2.1,0.4-4.2,0.7-6.4,0.9c-2.1,0.2-4.1,0.3-5.8,0.3
				c-2.1,0-4.1-0.3-6-0.9c-1.9-0.6-3.5-1.5-4.9-2.8c-1.4-1.2-2.5-2.8-3.3-4.8c-0.8-1.9-1.2-4.3-1.2-7c0-3.1,0.4-5.6,1.2-7.6
				c0.8-2,1.9-3.6,3.3-4.7c1.4-1.1,3-1.9,4.9-2.4c1.9-0.4,3.9-0.7,6-0.7c1.8,0,3.7,0.1,5.8,0.3c2.1,0.2,4.3,0.5,6.4,0.8l-0.3,3.6
				c-2.1-0.5-4.2-0.8-6.2-1c-2.1-0.2-3.9-0.2-5.5-0.2c-1.7,0-3.2,0.2-4.7,0.5c-1.4,0.3-2.7,0.9-3.7,1.8c-1.1,0.9-1.9,2.1-2.5,3.6
				c-0.6,1.5-0.9,3.5-0.9,5.9c0,2.1,0.3,3.9,0.9,5.4c0.6,1.5,1.5,2.7,2.5,3.7c1.1,1,2.3,1.7,3.7,2.1
				C785.4,546.6,786.9,546.9,788.6,546.9z"/>
			<path d="M812.4,541.3c0,1.1,0.1,2,0.3,2.7c0.2,0.7,0.5,1.2,0.9,1.6c0.4,0.4,0.8,0.6,1.4,0.7c0.5,0.1,1.1,0.2,1.7,0.2
				c0.2,0,0.6,0,1,0c0.4,0,0.9-0.1,1.4-0.1c0.5-0.1,1-0.1,1.6-0.2c0.6-0.1,1.1-0.2,1.6-0.3l0.3,3.6c-1.1,0.3-2.1,0.5-3,0.5
				c-0.8,0.1-1.6,0.1-2.3,0.1c-1.3,0-2.5-0.1-3.6-0.3c-1.1-0.2-2-0.6-2.7-1.3c-0.7-0.6-1.3-1.5-1.7-2.7s-0.6-2.7-0.6-4.5v-17.4H805
				v-3.5h3.7v-7.7h3.7v7.7h10.1v3.5h-10.1V541.3z"/>
			<path d="M850.2,549.7v-28.1c3.9-0.6,7.7-1.1,11.4-1.4c3.7-0.4,7.1-0.5,10.4-0.5c3.5,0,6.5,0.2,9,0.7c2.5,0.5,4.5,1.3,6.1,2.3
				c1.6,1.1,2.7,2.5,3.5,4.2c0.7,1.8,1.1,3.9,1.1,6.4v16.4h-3.7v-16.4c0-1.8-0.2-3.3-0.7-4.6c-0.5-1.3-1.3-2.3-2.5-3.1
				c-1.2-0.8-2.7-1.4-4.7-1.7c-1.9-0.4-4.3-0.6-7.2-0.6v26.5H869v-26.5c-2.2,0.1-4.6,0.2-7.2,0.4c-2.6,0.2-5.2,0.5-7.8,0.9v25.1
				H850.2z"/>
			<path d="M916.6,523.2c-1.9,0-4.1,0.1-6.6,0.2c-2.5,0.2-4.9,0.5-7.4,1l-0.3-3.6c2.5-0.3,5-0.6,7.5-0.8c2.5-0.2,4.8-0.3,6.9-0.3
				c1.8,0,3.6,0.3,5.1,0.8c1.6,0.5,3,1.3,4.1,2.3c1.2,1,2.1,2.3,2.8,3.8c0.7,1.5,1,3.4,1,5.4v10.4c0,0.5,0,1,0.1,1.5
				c0.1,0.5,0.2,1,0.4,1.4c0.2,0.4,0.4,0.7,0.8,1c0.3,0.2,0.8,0.4,1.4,0.4c0.4,0,0.7,0,0.7-0.1c0.1,0,0.1-0.1,0.1-0.1l0.2,3.6
				c-0.2,0-0.4,0.1-0.5,0.1c-0.2,0-0.3,0-0.5,0c-1.8,0-3.2-0.4-4.2-1.2s-1.6-1.8-1.9-3c-1.4,1.6-3.1,2.8-5.4,3.5
				c-2.2,0.7-4.8,1-7.8,1c-4.2,0-7.4-0.8-9.5-2.3c-2.2-1.5-3.2-3.9-3.2-7.1c0-2.1,0.6-3.8,1.9-5c1.2-1.2,3-1.9,5.3-2.1l18.3-2
				c0-1.4-0.2-2.6-0.7-3.7c-0.5-1.1-1.2-2-2-2.7c-0.8-0.7-1.8-1.3-3-1.7C919.1,523.4,917.9,523.2,916.6,523.2z M925.9,535.5
				l-18.3,1.9c-1.1,0.1-1.9,0.5-2.5,1.1c-0.6,0.6-0.9,1.4-0.9,2.4c0,2.1,0.8,3.6,2.3,4.6c1.5,1,3.8,1.5,6.8,1.5
				c3.4,0,6.2-0.5,8.4-1.5c2.2-1,3.6-2.7,4.1-5V535.5z"/>
			<path d="M939.4,549.7v-28.1c1.4-0.3,2.7-0.6,4.1-0.8c1.4-0.2,2.7-0.4,4.1-0.6c1.3-0.2,2.6-0.3,3.7-0.4c1.2-0.1,2.2-0.1,3.2-0.1
				c2,0,3.9,0.2,5.7,0.7c1.7,0.5,3.3,1.2,4.6,2.3c1.3,1.1,2.3,2.5,3.1,4.2c0.7,1.7,1.1,3.9,1.1,6.5v16.4h-3.7v-16.4
				c0-1.9-0.3-3.5-0.8-4.8c-0.6-1.3-1.3-2.3-2.3-3.1s-2.2-1.3-3.5-1.7c-1.4-0.3-2.8-0.5-4.4-0.5c-0.6,0-1.2,0-2.1,0.1
				c-0.8,0.1-1.7,0.1-2.7,0.2c-1,0.1-2,0.2-3,0.4c-1.1,0.2-2.1,0.3-3.2,0.5v25.3H939.4z"/>
			<path d="M994,523.2c-1.9,0-4.1,0.1-6.6,0.2c-2.5,0.2-4.9,0.5-7.4,1l-0.3-3.6c2.5-0.3,5-0.6,7.5-0.8c2.5-0.2,4.8-0.3,6.9-0.3
				c1.8,0,3.6,0.3,5.1,0.8c1.6,0.5,3,1.3,4.1,2.3c1.2,1,2.1,2.3,2.8,3.8c0.7,1.5,1,3.4,1,5.4v10.4c0,0.5,0,1,0.1,1.5
				c0.1,0.5,0.2,1,0.4,1.4c0.2,0.4,0.4,0.7,0.8,1c0.3,0.2,0.8,0.4,1.4,0.4c0.4,0,0.7,0,0.7-0.1c0.1,0,0.1-0.1,0.1-0.1l0.2,3.6
				c-0.2,0-0.4,0.1-0.5,0.1c-0.2,0-0.3,0-0.5,0c-1.8,0-3.2-0.4-4.2-1.2s-1.6-1.8-1.9-3c-1.4,1.6-3.1,2.8-5.4,3.5
				c-2.2,0.7-4.8,1-7.8,1c-4.2,0-7.4-0.8-9.5-2.3c-2.2-1.5-3.2-3.9-3.2-7.1c0-2.1,0.6-3.8,1.9-5c1.2-1.2,3-1.9,5.3-2.1l18.3-2
				c0-1.4-0.2-2.6-0.7-3.7c-0.5-1.1-1.2-2-2-2.7c-0.8-0.7-1.8-1.3-3-1.7C996.5,523.4,995.3,523.2,994,523.2z M1003.3,535.5
				l-18.3,1.9c-1.1,0.1-1.9,0.5-2.5,1.1c-0.6,0.6-0.9,1.4-0.9,2.4c0,2.1,0.8,3.6,2.3,4.6c1.5,1,3.8,1.5,6.8,1.5
				c3.4,0,6.2-0.5,8.4-1.5c2.2-1,3.6-2.7,4.1-5V535.5z"/>
			<path d="M1040.8,549.3c-2.1,0.4-4.2,0.7-6.1,0.9c-2,0.2-3.6,0.3-5,0.3c-2.1,0-4-0.3-5.8-0.8c-1.8-0.5-3.3-1.4-4.6-2.7
				c-1.3-1.2-2.3-2.9-3.1-4.9c-0.7-2-1.1-4.5-1.1-7.5c0-3,0.4-5.4,1.1-7.4c0.7-1.9,1.8-3.4,3.1-4.6c1.3-1.1,2.9-1.9,4.7-2.4
				c1.8-0.4,3.8-0.7,5.9-0.7c0.8,0,1.8,0,2.9,0.1c1.1,0.1,2.3,0.1,3.6,0.2c1.3,0.1,2.6,0.2,4,0.4c1.4,0.1,2.8,0.3,4.1,0.5v28.7
				c0,2-0.3,3.8-1,5.4c-0.7,1.5-1.6,2.8-2.8,3.8c-1.2,1-2.5,1.8-4.1,2.3c-1.6,0.5-3.3,0.8-5.1,0.8c-2.1,0-4.4-0.1-6.9-0.3
				c-2.5-0.2-5-0.5-7.5-0.9l0.3-3.6c2.5,0.5,4.9,0.8,7.4,1c2.5,0.2,4.7,0.2,6.6,0.2c1.3,0,2.5-0.2,3.7-0.6c1.1-0.4,2.1-0.9,3-1.7
				c0.9-0.7,1.5-1.6,2-2.7c0.5-1.1,0.7-2.3,0.7-3.7V549.3z M1029.9,546.9c0.5,0,1.2,0,2-0.1c0.8,0,1.7-0.1,2.6-0.2
				c1-0.1,2-0.2,3-0.4c1.1-0.2,2.1-0.3,3.2-0.5V524c-2.2-0.3-4.2-0.5-6.1-0.6c-1.9-0.1-3.4-0.2-4.5-0.2c-1.7,0-3.2,0.1-4.6,0.4
				c-1.4,0.3-2.6,0.9-3.6,1.7c-1,0.8-1.8,2-2.3,3.5c-0.6,1.5-0.8,3.4-0.8,5.8c0,2.3,0.3,4.3,0.8,5.8c0.6,1.6,1.3,2.8,2.3,3.8
				c1,1,2.1,1.6,3.5,2C1026.8,546.7,1028.3,546.9,1029.9,546.9z"/>
			<path d="M1069.5,550.5c-2.4,0-4.6-0.3-6.6-0.8c-2-0.6-3.7-1.5-5.1-2.7c-1.4-1.2-2.5-2.9-3.3-4.9c-0.8-2-1.1-4.4-1.1-7.2
				c0-3,0.4-5.6,1.3-7.5c0.9-2,2-3.5,3.5-4.7c1.5-1.1,3.1-1.9,5.1-2.4c1.9-0.4,4-0.6,6.1-0.6c2.3,0,4.3,0.2,6.2,0.7
				c1.8,0.5,3.4,1.3,4.7,2.5c1.3,1.2,2.3,2.8,2.9,4.8c0.7,2,1,4.4,1,7.4v1.8h-27c0.3,3.6,1.6,6.1,3.8,7.7c2.2,1.6,5.1,2.4,8.9,2.4
				c0.6,0,1.3,0,2.3-0.1c1,0,2.1-0.1,3.3-0.2c1.2-0.1,2.4-0.2,3.7-0.4c1.3-0.2,2.5-0.4,3.7-0.6l0.3,3.6c-1.2,0.2-2.5,0.3-3.8,0.5
				c-1.3,0.1-2.5,0.3-3.7,0.4c-1.2,0.1-2.3,0.2-3.4,0.2C1071.2,550.4,1070.3,550.5,1069.5,550.5z M1069.2,523.4
				c-1.5,0-3,0.1-4.4,0.4c-1.4,0.2-2.6,0.7-3.7,1.5c-1.1,0.7-2,1.7-2.7,3c-0.7,1.3-1.1,3-1.3,5.1h23.3c-0.1-1.9-0.4-3.6-1-4.8
				c-0.6-1.3-1.3-2.3-2.2-3c-0.9-0.7-2.1-1.3-3.4-1.6C1072.4,523.5,1070.9,523.4,1069.2,523.4z"/>
			<path d="M1093,549.7v-28.1c3.9-0.6,7.7-1.1,11.4-1.4c3.7-0.4,7.1-0.5,10.4-0.5c3.5,0,6.5,0.2,9,0.7c2.5,0.5,4.5,1.3,6.1,2.3
				c1.6,1.1,2.7,2.5,3.5,4.2c0.7,1.8,1.1,3.9,1.1,6.4v16.4h-3.7v-16.4c0-1.8-0.2-3.3-0.7-4.6c-0.5-1.3-1.3-2.3-2.5-3.1
				c-1.2-0.8-2.7-1.4-4.7-1.7c-1.9-0.4-4.3-0.6-7.2-0.6v26.5h-3.7v-26.5c-2.2,0.1-4.6,0.2-7.2,0.4c-2.6,0.2-5.2,0.5-7.8,0.9v25.1
				H1093z"/>
			<path d="M1159.3,550.5c-2.4,0-4.6-0.3-6.6-0.8c-2-0.6-3.7-1.5-5.1-2.7c-1.4-1.2-2.5-2.9-3.3-4.9c-0.8-2-1.1-4.4-1.1-7.2
				c0-3,0.4-5.6,1.3-7.5c0.9-2,2-3.5,3.5-4.7c1.5-1.1,3.1-1.9,5.1-2.4c1.9-0.4,4-0.6,6.1-0.6c2.3,0,4.3,0.2,6.2,0.7
				c1.8,0.5,3.4,1.3,4.7,2.5c1.3,1.2,2.3,2.8,2.9,4.8c0.7,2,1,4.4,1,7.4v1.8h-27c0.3,3.6,1.6,6.1,3.8,7.7c2.2,1.6,5.1,2.4,8.9,2.4
				c0.6,0,1.3,0,2.3-0.1c1,0,2.1-0.1,3.3-0.2c1.2-0.1,2.4-0.2,3.7-0.4c1.3-0.2,2.5-0.4,3.7-0.6l0.3,3.6c-1.2,0.2-2.5,0.3-3.8,0.5
				c-1.3,0.1-2.5,0.3-3.7,0.4c-1.2,0.1-2.3,0.2-3.4,0.2C1161,550.4,1160,550.5,1159.3,550.5z M1159,523.4c-1.5,0-3,0.1-4.4,0.4
				c-1.4,0.2-2.6,0.7-3.7,1.5c-1.1,0.7-2,1.7-2.7,3s-1.1,3-1.3,5.1h23.3c-0.1-1.9-0.4-3.6-1-4.8c-0.6-1.3-1.3-2.3-2.2-3
				c-0.9-0.7-2.1-1.3-3.4-1.6C1162.2,523.5,1160.7,523.4,1159,523.4z"/>
			<path d="M1182.8,549.7v-28.1c1.4-0.3,2.7-0.6,4.1-0.8c1.4-0.2,2.7-0.4,4.1-0.6c1.3-0.2,2.6-0.3,3.7-0.4c1.2-0.1,2.2-0.1,3.2-0.1
				c2,0,3.9,0.2,5.7,0.7c1.7,0.5,3.3,1.2,4.6,2.3c1.3,1.1,2.3,2.5,3.1,4.2c0.7,1.7,1.1,3.9,1.1,6.5v16.4h-3.7v-16.4
				c0-1.9-0.3-3.5-0.8-4.8c-0.6-1.3-1.3-2.3-2.3-3.1c-1-0.8-2.2-1.3-3.5-1.7c-1.4-0.3-2.8-0.5-4.4-0.5c-0.6,0-1.2,0-2.1,0.1
				c-0.8,0.1-1.7,0.1-2.7,0.2c-1,0.1-2,0.2-3,0.4s-2.1,0.3-3.2,0.5v25.3H1182.8z"/>
			<path d="M1226.5,541.3c0,1.1,0.1,2,0.3,2.7c0.2,0.7,0.5,1.2,0.9,1.6c0.4,0.4,0.8,0.6,1.4,0.7c0.5,0.1,1.1,0.2,1.7,0.2
				c0.2,0,0.6,0,1,0c0.4,0,0.9-0.1,1.4-0.1c0.5-0.1,1-0.1,1.6-0.2c0.6-0.1,1.1-0.2,1.6-0.3l0.3,3.6c-1.1,0.3-2.1,0.5-3,0.5
				c-0.8,0.1-1.6,0.1-2.3,0.1c-1.3,0-2.5-0.1-3.6-0.3c-1.1-0.2-2-0.6-2.7-1.3c-0.7-0.6-1.3-1.5-1.7-2.7c-0.4-1.1-0.6-2.7-0.6-4.5
				v-17.4h-3.7v-3.5h3.7v-7.7h3.7v7.7h10.1v3.5h-10.1V541.3z"/>
		</g>
	</g>
	<g>
		<path d="M625.6,475.5v-84.3h8.5v38.2h21.2l34.4-38.2h11l-37.8,42.2l37.8,42.1h-11l-34.3-37.9h-21.3v37.9H625.6z"/>
		<path d="M778.2,391.2h8.5v52c0,6.1-1,11.2-3.1,15.5c-2.1,4.3-4.8,7.8-8.4,10.5c-3.5,2.8-7.7,4.8-12.5,6s-9.9,1.9-15.4,1.9
			c-5.6,0-10.8-0.6-15.7-1.9s-9.1-3.3-12.6-6c-3.6-2.8-6.4-6.3-8.4-10.5c-2.1-4.3-3.1-9.4-3.1-15.5v-52h8.5v51.9
			c0,4.6,0.8,8.5,2.5,11.8c1.7,3.3,3.9,6,6.7,8c2.8,2.1,6.1,3.6,9.9,4.6c3.8,1,7.8,1.5,12.1,1.5c4.3,0,8.3-0.5,12-1.5
			c3.7-1,7-2.5,9.8-4.6c2.8-2.1,5-4.8,6.7-8c1.7-3.3,2.5-7.2,2.5-11.8V391.2z"/>
		<path d="M809,475.5v-84.3h58c2.8,0,5.4,0.4,7.8,1.2c2.4,0.8,4.6,2.1,6.4,3.9c1.9,1.8,3.3,4,4.4,6.8c1.1,2.8,1.7,6,1.7,9.8
			c0,5.4-1,9.8-2.9,13.1c-1.9,3.3-4.4,5.7-7.5,7.2c3.5,1.3,6.4,3.6,8.6,6.9c2.2,3.2,3.3,7.8,3.3,13.7c0,3.8-0.5,7.1-1.6,9.8
			c-1.1,2.8-2.5,5-4.4,6.8c-1.9,1.8-4,3.1-6.4,3.9c-2.4,0.8-5.1,1.2-7.9,1.2H809z M817.5,399.9v29.4H867c3.2,0,5.9-1.2,8.3-3.7
			c2.4-2.5,3.5-6.4,3.5-11.8c0-2.6-0.3-4.8-0.9-6.6c-0.6-1.8-1.5-3.3-2.6-4.3c-1.1-1.1-2.4-1.8-3.8-2.3c-1.4-0.5-2.9-0.7-4.5-0.7
			H817.5z M817.5,437.5v29.8h51.1c1.6,0,3.1-0.3,4.6-0.8c1.5-0.5,2.7-1.3,3.8-2.4c1.1-1.1,1.9-2.6,2.5-4.4c0.6-1.9,0.9-4.1,0.9-6.8
			c0-5.3-1.2-9.2-3.5-11.6c-2.3-2.5-5.1-3.7-8.3-3.7H817.5z"/>
		<path d="M953.3,443.8l28.5,31.7h-11l-28.7-31.7h-26.9v31.7h-8.5v-84.3H961c3.1,0,5.9,0.5,8.6,1.5c2.7,1,5,2.5,7,4.7
			c2,2.1,3.6,4.8,4.8,8.2c1.2,3.3,1.8,7.3,1.8,11.9c0,4.7-0.6,8.6-1.8,12c-1.2,3.3-2.8,6.1-4.8,8.2c-2,2.1-4.4,3.7-7,4.7
			c-2.7,1-5.6,1.5-8.6,1.5H953.3z M915.1,399.4v36.3h45.7c1.9,0,3.7-0.3,5.4-1c1.7-0.7,3.2-1.8,4.4-3.3c1.2-1.5,2.2-3.4,3-5.7
			c0.7-2.3,1.1-5.1,1.1-8.4c0-3.2-0.4-5.9-1.1-8.2c-0.8-2.3-1.7-4.2-3-5.6c-1.2-1.5-2.7-2.5-4.4-3.2c-1.7-0.7-3.5-1-5.4-1H915.1z"/>
		<path d="M1061.4,456h-54.7l-9.9,19.5h-9.5l43.3-84.3h7.1l43.1,84.3h-9.5L1061.4,456z M1010.5,448.5h47.2l-23.5-46.3L1010.5,448.5z
			"/>
		<path d="M1149.7,391.2h9.5l-43.3,84.3h-7l-43.4-84.3h9.6l37.5,73.4L1149.7,391.2z"/>
		<path d="M1217.2,456h-54.7l-9.9,19.5h-9.5l43.3-84.3h7.1l43.1,84.3h-9.5L1217.2,456z M1166.2,448.5h47.2l-23.5-46.3L1166.2,448.5z
			"/>
	</g>
</g>
</svg>
